<svg width="30" height="30" viewBox="0 0 30 30" fill="none" xmlns="http://www.w3.org/2000/svg">
<path fill-rule="evenodd" clip-rule="evenodd" d="M20.4167 5.83333C21.2221 5.83333 21.875 6.48626 21.875 7.29167V10.2083H23.3333C25.7496 10.2083 27.7083 12.167 27.7083 14.5833V26.25C28.5138 26.25 29.1667 26.9029 29.1667 27.7083C29.1667 28.5138 28.5138 29.1667 27.7083 29.1667H1.45833C0.652925 29.1667 0 28.5138 0 27.7083C0 26.9029 0.652925 26.25 1.45833 26.25V14.5833C1.45833 12.167 3.41709 10.2083 5.83333 10.2083H7.29167V7.29167C7.29167 6.48626 7.94459 5.83333 8.75 5.83333C9.55541 5.83333 10.2083 6.48626 10.2083 7.29167V10.2083H13.125V7.29167C13.125 6.48626 13.7779 5.83333 14.5833 5.83333C15.3888 5.83333 16.0417 6.48626 16.0417 7.29167V10.2083H18.9583V7.29167C18.9583 6.48626 19.6112 5.83333 20.4167 5.83333ZM22.9062 19.9895C21.5313 21.3644 19.3021 21.3644 17.9271 19.9895C17.6912 19.7536 17.3088 19.7536 17.0729 19.9895C15.6979 21.3644 13.4687 21.3644 12.0938 19.9895C11.8579 19.7536 11.4754 19.7536 11.2395 19.9895C9.8646 21.3644 7.6354 21.3644 6.26046 19.9895C6.02456 19.7536 5.6421 19.7536 5.4062 19.9895L4.375 21.0207V26.25H24.7917V21.0207L23.7605 19.9895C23.5245 19.7536 23.1421 19.7536 22.9062 19.9895ZM23.3333 13.125H5.83333C5.08545 13.125 4.46905 13.688 4.38481 14.4133L4.375 14.5833V17.2111C5.67281 16.6209 7.25532 16.8596 8.32287 17.9271C8.55877 18.1631 8.94123 18.1631 9.17713 17.9271C10.5521 16.5522 12.7813 16.5522 14.1562 17.9271C14.3921 18.1631 14.7745 18.1631 15.0105 17.9271C16.3854 16.5522 18.6146 16.5522 19.9895 17.9271C20.2255 18.1631 20.6079 18.1631 20.8438 17.9271C21.8446 16.9264 23.2981 16.654 24.5452 17.1102L24.7917 17.2111V14.5833C24.7917 13.8354 24.2287 13.219 23.5034 13.1348L23.3333 13.125ZM15.3125 0C14.9472 0.730595 15.1309 1.25905 15.4052 1.7058L15.5611 1.9421L15.6406 2.05554C15.8502 2.35295 16.0417 2.6248 16.0417 2.91667C16.0417 3.72207 15.3888 4.375 14.5833 4.375C13.7779 4.375 13.125 3.72207 13.125 2.91667C13.125 2.11126 13.8542 0.729167 15.3125 0ZM9.47917 0C9.11386 0.730595 9.29759 1.25905 9.57192 1.7058L9.72779 1.9421L9.80729 2.05554C10.0168 2.35295 10.2083 2.6248 10.2083 2.91667C10.2083 3.72207 9.55541 4.375 8.75 4.375C7.94459 4.375 7.29167 3.72207 7.29167 2.91667C7.29167 2.11126 8.02083 0.729167 9.47917 0ZM21.1458 0C20.7805 0.730595 20.9643 1.25905 21.2386 1.7058L21.3944 1.9421L21.474 2.05554C21.6835 2.35295 21.875 2.6248 21.875 2.91667C21.875 3.72207 21.2221 4.375 20.4167 4.375C19.6112 4.375 18.9583 3.72207 18.9583 2.91667C18.9583 2.11126 19.6875 0.729167 21.1458 0Z" fill="#4EBCC3"/>
</svg>
