<?xml version="1.0" encoding="UTF-8" standalone="no"?>
<svg
   shape-rendering="geometricPrecision"
   text-rendering="geometricPrecision"
   image-rendering="optimizeQuality"
   fill-rule="evenodd"
   clip-rule="evenodd"
   viewBox="0 0 512 446.552"
   version="1.1"
   id="svg8"
   sodipodi:docname="broken-heart.svg"
   inkscape:version="1.2.2 (b0a8486541, 2022-12-01)"
   xmlns:inkscape="http://www.inkscape.org/namespaces/inkscape"
   xmlns:sodipodi="http://sodipodi.sourceforge.net/DTD/sodipodi-0.dtd"
   xmlns="http://www.w3.org/2000/svg"
   xmlns:svg="http://www.w3.org/2000/svg">
  <defs
     id="defs12" />
  <sodipodi:namedview
     id="namedview10"
     pagecolor="#ffffff"
     bordercolor="#000000"
     borderopacity="0.25"
     inkscape:showpageshadow="2"
     inkscape:pageopacity="0.0"
     inkscape:pagecheckerboard="0"
     inkscape:deskcolor="#d1d1d1"
     showgrid="false"
     inkscape:zoom="0.52849388"
     inkscape:cx="193.00129"
     inkscape:cy="223.276"
     inkscape:window-width="1440"
     inkscape:window-height="828"
     inkscape:window-x="0"
     inkscape:window-y="0"
     inkscape:window-maximized="1"
     inkscape:current-layer="svg8" />
  <path
     fill="#F7D55B"
     d="M274.352 55.023c142.916-160.902 456.84 102.665-4.677 390.935l3.115-65.418 31.764-47.077c2.92-4.337 3.598-10.039 1.291-15.155L258.8 214.786l45.415-56.166c3.296-4.106 4.434-9.784 2.507-15.098l-32.37-88.499zm-35.95 391.529c-481.053-317.395-103.859-575.206 7.958-377.206l27.999 76.552-45.933 56.8c-3.805 4.734-4.398 11.011-2.078 16.201l47.41 104.324-29.303 43.414a15.556 15.556 0 00-2.671 8.917l-3.382 70.998z"
     id="path2"
     style="fill:#4da9a2;fill-opacity:0.98039216" />
</svg>
