<svg width="25" height="34" viewBox="0 0 25 34" fill="none" xmlns="http://www.w3.org/2000/svg">
<path d="M24.3294 32.8184C24.0766 28.9837 20.5181 25.7505 15.492 24.7253V13.3044H21.0355C21.6479 13.3044 22.1442 12.8078 22.1442 12.1956V7.7609C22.1442 7.14883 21.6479 6.65218 21.0355 6.65218H15.492V1.10872C15.492 0.496652 14.9958 0 14.3833 0H9.94848C9.33602 0 8.83976 0.496652 8.83976 1.10872V6.65218H3.2963C2.68384 6.65218 2.18758 7.14883 2.18758 7.7609V12.1957C2.18758 12.8078 2.68384 13.3044 3.2963 13.3044H8.83976V24.7254C3.81374 25.7505 0.25523 28.9837 0.00242106 32.8184C-0.0178328 33.1245 0.089679 33.4255 0.299124 33.6492C0.508769 33.873 0.801819 34.0001 1.10855 34.0001H23.2232C23.53 34.0001 23.823 33.873 24.0327 33.6492C24.2421 33.4255 24.3496 33.1245 24.3294 32.8184ZM4.40509 11.087V8.86962H9.94855C10.561 8.86962 11.0573 8.3731 11.0573 7.7609V2.21737H13.2746V7.76083C13.2746 8.3729 13.7709 8.86955 14.3834 8.86955H19.9268V11.0869H14.3834C13.7709 11.0869 13.2746 11.5836 13.2746 12.1956V24.4266C12.5355 24.3795 11.7964 24.3794 11.0573 24.4266V12.1956C11.0573 11.5836 10.561 11.0869 9.94855 11.0869H4.40509V11.087ZM2.46051 31.7826C4.89875 24.9251 19.4357 24.9323 21.8713 31.7826H2.46051Z" fill="#499A95"/>
</svg>
