<svg width="20" height="29" viewBox="0 0 20 29" fill="none" xmlns="http://www.w3.org/2000/svg">
<path fill-rule="evenodd" clip-rule="evenodd" d="M10.0144 17.101C8.1077 17.101 6.31663 16.3599 4.96798 15.0147C0.475323 10.5271 3.70068 2.85017 10.0144 2.85017C16.3238 2.85017 19.5577 10.5228 15.0608 15.0147C13.7121 16.3599 11.921 17.101 10.0144 17.101ZM17.0588 17.0297C23.3739 10.7237 18.8241 0 10.0101 0C1.21601 0 -3.38653 10.7237 2.93002 17.0297C4.51557 18.613 7.12012 19.5421 8.54726 19.8371V22.8711H4.26582V25.7213H8.54726V28.5714H11.4016V25.7213H15.683V22.8711H11.4016V19.8371C14.2558 19.5421 15.4718 18.613 17.0588 17.0297Z" fill="#4EBCC3"/>
</svg>
