<svg width="36" height="36" viewBox="0 0 36 36" fill="none" xmlns="http://www.w3.org/2000/svg">
<mask id="path-1-inside-1_186_28" fill="white">
<path d="M19.9411 10.8757L22.5323 13.4672C23.7228 14.6577 24.6672 16.071 25.3114 17.6265C25.9557 19.182 26.2873 20.8491 26.2873 22.5328C26.2873 24.2165 25.9557 25.8836 25.3114 27.4391C24.6672 28.9946 23.7228 30.4079 22.5323 31.5984L21.8841 32.2449C19.48 34.6493 16.2193 36 12.8194 36C9.41948 36 6.15882 34.6493 3.75471 32.2449C1.35061 29.8406 2.53313e-08 26.5796 0 23.1793C-2.53313e-08 19.779 1.35061 16.518 3.75471 14.1137L6.34593 16.7052C5.48958 17.5541 4.80934 18.5639 4.34425 19.6765C3.87915 20.7891 3.63838 21.9826 3.63574 23.1885C3.63309 24.3944 3.86864 25.589 4.32886 26.7036C4.78907 27.8182 5.46489 28.831 6.31752 29.6837C7.17014 30.5364 8.18277 31.2123 9.29728 31.6725C10.4118 32.1328 11.6062 32.3684 12.812 32.3657C14.0178 32.3631 15.2112 32.1223 16.3237 31.6571C17.4361 31.192 18.4458 30.5117 19.2947 29.6553L19.943 29.0069C21.6595 27.2897 22.6238 24.961 22.6238 22.5328C22.6238 20.1046 21.6595 17.7759 19.943 16.0587L17.3517 13.4672L19.943 10.8775L19.9411 10.8757ZM32.2435 21.8845L29.6541 19.2948C30.5104 18.4459 31.1907 17.4361 31.6558 16.3235C32.1208 15.2109 32.3616 14.0174 32.3643 12.8115C32.3669 11.6056 32.1314 10.411 31.6711 9.29639C31.2109 8.18177 30.5351 7.16903 29.6825 6.31633C28.8299 5.46362 27.8172 4.78773 26.7027 4.32747C25.5882 3.86721 24.3938 3.63163 23.188 3.63427C21.9822 3.63691 20.7888 3.87772 19.6763 4.34286C18.5639 4.808 17.5542 5.48831 16.7053 6.34475L16.057 6.99307C14.3405 8.7103 13.3762 11.039 13.3762 13.4672C13.3762 15.8954 14.3405 18.2241 16.057 19.9413L18.6483 22.5328L16.057 25.1225L13.4677 22.5328C12.2772 21.3423 11.3329 19.929 10.6886 18.3735C10.0443 16.818 9.71267 15.1509 9.71267 13.4672C9.71267 11.7835 10.0443 10.1164 10.6886 8.56088C11.3329 7.00539 12.2772 5.59206 13.4677 4.40159L14.1159 3.7551C16.52 1.35075 19.7807 0 23.1806 0C26.5805 0 29.8412 1.35075 32.2453 3.7551C34.6494 6.15944 36 9.42044 36 12.8207C36 16.221 34.6494 19.482 32.2453 21.8863L32.2435 21.8845Z"/>
</mask>
<path d="M19.9411 10.8757L22.5323 13.4672C23.7228 14.6577 24.6672 16.071 25.3114 17.6265C25.9557 19.182 26.2873 20.8491 26.2873 22.5328C26.2873 24.2165 25.9557 25.8836 25.3114 27.4391C24.6672 28.9946 23.7228 30.4079 22.5323 31.5984L21.8841 32.2449C19.48 34.6493 16.2193 36 12.8194 36C9.41948 36 6.15882 34.6493 3.75471 32.2449C1.35061 29.8406 2.53313e-08 26.5796 0 23.1793C-2.53313e-08 19.779 1.35061 16.518 3.75471 14.1137L6.34593 16.7052C5.48958 17.5541 4.80934 18.5639 4.34425 19.6765C3.87915 20.7891 3.63838 21.9826 3.63574 23.1885C3.63309 24.3944 3.86864 25.589 4.32886 26.7036C4.78907 27.8182 5.46489 28.831 6.31752 29.6837C7.17014 30.5364 8.18277 31.2123 9.29728 31.6725C10.4118 32.1328 11.6062 32.3684 12.812 32.3657C14.0178 32.3631 15.2112 32.1223 16.3237 31.6571C17.4361 31.192 18.4458 30.5117 19.2947 29.6553L19.943 29.0069C21.6595 27.2897 22.6238 24.961 22.6238 22.5328C22.6238 20.1046 21.6595 17.7759 19.943 16.0587L17.3517 13.4672L19.943 10.8775L19.9411 10.8757ZM32.2435 21.8845L29.6541 19.2948C30.5104 18.4459 31.1907 17.4361 31.6558 16.3235C32.1208 15.2109 32.3616 14.0174 32.3643 12.8115C32.3669 11.6056 32.1314 10.411 31.6711 9.29639C31.2109 8.18177 30.5351 7.16903 29.6825 6.31633C28.8299 5.46362 27.8172 4.78773 26.7027 4.32747C25.5882 3.86721 24.3938 3.63163 23.188 3.63427C21.9822 3.63691 20.7888 3.87772 19.6763 4.34286C18.5639 4.808 17.5542 5.48831 16.7053 6.34475L16.057 6.99307C14.3405 8.7103 13.3762 11.039 13.3762 13.4672C13.3762 15.8954 14.3405 18.2241 16.057 19.9413L18.6483 22.5328L16.057 25.1225L13.4677 22.5328C12.2772 21.3423 11.3329 19.929 10.6886 18.3735C10.0443 16.818 9.71267 15.1509 9.71267 13.4672C9.71267 11.7835 10.0443 10.1164 10.6886 8.56088C11.3329 7.00539 12.2772 5.59206 13.4677 4.40159L14.1159 3.7551C16.52 1.35075 19.7807 0 23.1806 0C26.5805 0 29.8412 1.35075 32.2453 3.7551C34.6494 6.15944 36 9.42044 36 12.8207C36 16.221 34.6494 19.482 32.2453 21.8863L32.2435 21.8845Z" fill="#D9D9D9"/>
<path d="M19.9411 10.8757L43.5126 -12.6933L-3.64154 34.4335L19.9411 10.8757ZM22.5323 13.4672L-1.03908 37.0362L-1.03788 37.0374L22.5323 13.4672ZM26.2873 22.5328H-7.046H26.2873ZM22.5323 31.5984L46.0704 55.2007L46.0865 55.1847L46.1026 55.1686L22.5323 31.5984ZM21.8841 32.2449L-1.654 8.64258L-1.67068 8.65921L-1.68734 8.67588L21.8841 32.2449ZM12.8194 36V2.66667V36ZM0 23.1793H33.3333H0ZM3.75471 14.1137L27.3261 -9.45534L3.75471 -33.0291L-19.8167 -9.45533L3.75471 14.1137ZM6.34593 16.7052L29.8139 40.3772L53.5874 16.8086L29.9174 -6.86386L6.34593 16.7052ZM19.2947 29.6553L-4.27673 6.08623L-4.32834 6.13784L-4.37972 6.18968L19.2947 29.6553ZM19.943 29.0069L43.5144 52.576L43.5179 52.5724L19.943 29.0069ZM22.6238 22.5328H55.9571H22.6238ZM19.943 16.0587L43.5179 -7.50679L43.5144 -7.51035L19.943 16.0587ZM17.3517 13.4672L-6.21135 -10.1102L-29.7947 13.4589L-6.21968 37.0362L17.3517 13.4672ZM19.943 10.8775L43.506 34.4549L67.0781 10.8971L43.5256 -12.6802L19.943 10.8775ZM32.2435 21.8845L8.67202 45.4535L8.67203 45.4535L32.2435 21.8845ZM29.6541 19.2948L6.18609 -4.37721L-17.5874 19.1914L6.08263 42.8638L29.6541 19.2948ZM16.7053 6.34475L40.2767 29.9138L40.3283 29.8622L40.3797 29.8103L16.7053 6.34475ZM16.057 6.99307L-7.51436 -16.576L-7.51794 -16.5724L16.057 6.99307ZM13.3762 13.4672H46.7096H13.3762ZM16.057 19.9413L-7.51794 43.5068L-7.51439 43.5103L16.057 19.9413ZM18.6483 22.5328L42.2113 46.1102L65.7946 22.5411L42.2197 -1.03622L18.6483 22.5328ZM16.057 25.1225L-7.51437 48.6915L16.0487 72.257L39.6201 48.6998L16.057 25.1225ZM13.4677 22.5328L37.0391 -1.03623L37.0379 -1.03743L13.4677 22.5328ZM9.71267 13.4672H-23.6207H9.71267ZM13.4677 4.40159L-10.0704 -19.2008L-10.0865 -19.1847L-10.1026 -19.1686L13.4677 4.40159ZM14.1159 3.7551L37.654 27.3575L37.6707 27.3408L37.6873 27.3241L14.1159 3.7551ZM36 12.8207H69.3333H36ZM32.2453 21.8863L8.67386 45.4553L32.2453 69.0292L55.8167 45.4553L32.2453 21.8863ZM19.9411 10.8757L-3.6303 34.4447L-1.03908 37.0362L22.5323 13.4672L46.1038 -10.1018L43.5126 -12.6933L19.9411 10.8757ZM22.5323 13.4672L-1.03788 37.0374C-2.9429 35.1324 -4.45387 32.8709 -5.48468 30.3823L25.3114 17.6265L56.1076 4.87069C53.7882 -0.728947 50.3885 -5.81707 46.1026 -10.103L22.5323 13.4672ZM25.3114 17.6265L-5.48468 30.3823C-6.5155 27.8936 -7.046 25.2263 -7.046 22.5328H26.2873H59.6207C59.6207 16.4719 58.4269 10.4703 56.1076 4.87069L25.3114 17.6265ZM26.2873 22.5328H-7.046C-7.046 19.8393 -6.5155 17.172 -5.48468 14.6833L25.3114 27.4391L56.1076 40.1949C58.4269 34.5953 59.6207 28.5937 59.6207 22.5328H26.2873ZM25.3114 27.4391L-5.48468 14.6833C-4.45386 12.1946 -2.94288 9.93318 -1.03788 8.02818L22.5323 31.5984L46.1026 55.1686C50.3885 50.8827 53.7882 45.7946 56.1076 40.1949L25.3114 27.4391ZM22.5323 31.5984L-1.00574 7.99608L-1.654 8.64258L21.8841 32.2449L45.4222 55.8472L46.0704 55.2007L22.5323 31.5984ZM21.8841 32.2449L-1.68734 8.67588C2.1595 4.82864 7.37766 2.66667 12.8194 2.66667V36V69.3333C25.061 69.3333 36.8005 64.4699 45.4555 55.8139L21.8841 32.2449ZM12.8194 36V2.66667C18.2611 2.66667 23.4793 4.82864 27.3261 8.67588L3.75471 32.2449L-19.8167 55.8139C-11.1617 64.4699 0.577832 69.3333 12.8194 69.3333V36ZM3.75471 32.2449L27.3261 8.67588C31.1729 12.523 33.3333 17.7401 33.3333 23.1793H0L-33.3333 23.1793C-33.3333 35.419 -28.4717 47.1581 -19.8167 55.8139L3.75471 32.2449ZM0 23.1793H33.3333C33.3333 28.6185 31.1729 33.8356 27.3261 37.6827L3.75471 14.1137L-19.8167 -9.45533C-28.4716 -0.799516 -33.3333 10.9396 -33.3333 23.1793L0 23.1793ZM3.75471 14.1137L-19.8167 37.6827L-17.2255 40.2742L6.34593 16.7052L29.9174 -6.86386L27.3261 -9.45534L3.75471 14.1137ZM6.34593 16.7052L-17.122 -6.96686C-21.0958 -3.02739 -24.2521 1.65806 -26.4101 6.82042L4.34425 19.6765L35.0986 32.5326C33.8708 35.4697 32.0749 38.1357 29.8139 40.3772L6.34593 16.7052ZM4.34425 19.6765L-26.4101 6.82042C-28.5681 11.9828 -29.6853 17.5204 -29.6975 23.1155L3.63574 23.1885L36.969 23.2615C36.962 26.4448 36.3264 29.5954 35.0986 32.5326L4.34425 19.6765ZM3.63574 23.1885L-29.6975 23.1155C-29.7098 28.7106 -28.6169 34.2531 -26.4815 39.4249L4.32886 26.7036L35.1392 13.9823C36.3542 16.9248 36.976 20.0782 36.969 23.2615L3.63574 23.1885ZM4.32886 26.7036L-26.4815 39.4249C-24.3462 44.5966 -21.2103 49.2959 -17.2539 53.2527L6.31752 29.6837L29.8889 6.11465C32.1401 8.36607 33.9243 11.0398 35.1392 13.9823L4.32886 26.7036ZM6.31752 29.6837L-17.2539 53.2527C-13.2974 57.2096 -8.59831 60.3461 -3.42622 62.482L9.29728 31.6725L22.0208 0.863056C24.9639 2.07847 27.6377 3.8632 29.8889 6.11465L6.31752 29.6837ZM9.29728 31.6725L-3.42622 62.482C1.74592 64.618 7.28908 65.7112 12.885 65.699L12.812 32.3657L12.739 -0.967527C15.9234 -0.9745 19.0777 -0.352373 22.0208 0.863056L9.29728 31.6725ZM12.812 32.3657L12.885 65.699C18.4809 65.6867 24.0192 64.5692 29.182 62.4106L16.3237 31.6571L3.46536 0.903691C6.40312 -0.324618 9.55466 -0.960553 12.739 -0.967527L12.812 32.3657ZM16.3237 31.6571L29.182 62.4106C34.3447 60.252 39.03 57.095 42.9691 53.1208L19.2947 29.6553L-4.37972 6.18968C-2.1384 3.92841 0.527624 2.13198 3.46536 0.903691L16.3237 31.6571ZM19.2947 29.6553L42.8661 53.2243L43.5144 52.576L19.943 29.0069L-3.62847 5.4379L-4.27673 6.08623L19.2947 29.6553ZM19.943 29.0069L43.5179 52.5724C51.4831 44.604 55.9571 33.7987 55.9571 22.5328H22.6238H-10.7096C-10.7096 16.1232 -8.16416 9.97542 -3.63203 5.44146L19.943 29.0069ZM22.6238 22.5328H55.9571C55.9571 11.267 51.4831 0.461628 43.5179 -7.50679L19.943 16.0587L-3.63203 39.6241C-8.16417 35.0902 -10.7096 28.9423 -10.7096 22.5328H22.6238ZM19.943 16.0587L43.5144 -7.51035L40.9232 -10.1018L17.3517 13.4672L-6.21968 37.0362L-3.62846 39.6277L19.943 16.0587ZM17.3517 13.4672L40.9148 37.0446L43.506 34.4549L19.943 10.8775L-3.62013 -12.6998L-6.21135 -10.1102L17.3517 13.4672ZM19.943 10.8775L43.5256 -12.6802L43.5238 -12.6821L19.9411 10.8757L-3.64154 34.4335L-3.6397 34.4353L19.943 10.8775ZM32.2435 21.8845L55.8149 -1.68454L53.2255 -4.27419L29.6541 19.2948L6.08263 42.8638L8.67202 45.4535L32.2435 21.8845ZM29.6541 19.2948L53.122 42.9669C57.0958 39.0274 60.2522 34.3419 62.4101 29.1796L31.6558 16.3235L0.901372 3.46741C2.12917 0.530272 3.92505 -2.13565 6.18609 -4.37721L29.6541 19.2948ZM31.6558 16.3235L62.4101 29.1796C64.5681 24.0172 65.6853 18.4796 65.6975 12.8845L32.3643 12.8115L-0.968987 12.7385C-0.962017 9.55521 -0.326431 6.40456 0.901372 3.46741L31.6558 16.3235ZM32.3643 12.8115L65.6975 12.8845C65.7098 7.28936 64.6169 1.74685 62.4815 -3.42489L31.6711 9.29639L0.860753 22.0177C-0.354173 19.0752 -0.975957 15.9218 -0.968987 12.7385L32.3643 12.8115ZM31.6711 9.29639L62.4815 -3.42489C60.3462 -8.59661 57.2104 -13.2958 53.2539 -17.2527L29.6825 6.31633L6.11106 29.8854C3.85985 27.6339 2.07567 24.9601 0.860753 22.0177L31.6711 9.29639ZM29.6825 6.31633L53.2539 -17.2527C49.2975 -21.2095 44.5983 -24.3461 39.4262 -26.482L26.7027 4.32747L13.9792 35.1369C11.0361 33.9215 8.36227 32.1368 6.11106 29.8854L29.6825 6.31633ZM26.7027 4.32747L39.4262 -26.482C34.2541 -28.618 28.7109 -29.7112 23.115 -29.699L23.188 3.63427L23.261 36.9675C20.0766 36.9745 16.9223 36.3524 13.9792 35.1369L26.7027 4.32747ZM23.188 3.63427L23.115 -29.699C17.5191 -29.6867 11.9808 -28.5692 6.81802 -26.4106L19.6763 4.34286L32.5346 35.0963C29.5969 36.3246 26.4453 36.9606 23.261 36.9675L23.188 3.63427ZM19.6763 4.34286L6.81802 -26.4106C1.6553 -24.252 -3.03004 -21.0949 -6.96911 -17.1208L16.7053 6.34475L40.3797 29.8103C38.1384 32.0716 35.4724 33.868 32.5346 35.0963L19.6763 4.34286ZM16.7053 6.34475L-6.8661 -17.2243L-7.51436 -16.576L16.057 6.99307L39.6285 30.5621L40.2767 29.9138L16.7053 6.34475ZM16.057 6.99307L-7.51794 -16.5724C-15.4831 -8.60398 -19.9571 2.20133 -19.9571 13.4672H13.3762H46.7096C46.7096 19.8768 44.1642 26.0246 39.632 30.5585L16.057 6.99307ZM13.3762 13.4672H-19.9571C-19.9571 24.7331 -15.4831 35.5384 -7.51794 43.5068L16.057 19.9413L39.632 -3.62415C44.1642 0.909817 46.7096 7.05765 46.7096 13.4672H13.3762ZM16.057 19.9413L-7.51439 43.5103L-4.92317 46.1018L18.6483 22.5328L42.2197 -1.03622L39.6285 -3.6277L16.057 19.9413ZM18.6483 22.5328L-4.91482 -1.04456L-7.50604 1.54509L16.057 25.1225L39.6201 48.6998L42.2113 46.1102L18.6483 22.5328ZM16.057 25.1225L39.6285 1.55342L37.0391 -1.03623L13.4677 22.5328L-10.1038 46.1018L-7.51437 48.6915L16.057 25.1225ZM13.4677 22.5328L37.0379 -1.03743C38.9429 0.867595 40.4539 3.12906 41.4847 5.61773L10.6886 18.3735L-20.1075 31.1293C-17.7882 36.729 -14.3885 41.8171 -10.1026 46.103L13.4677 22.5328ZM10.6886 18.3735L41.4847 5.61773C42.5155 8.10641 43.046 10.7737 43.046 13.4672H9.71267H-23.6207C-23.6207 19.5281 -22.4269 25.5297 -20.1075 31.1293L10.6886 18.3735ZM9.71267 13.4672H43.046C43.046 16.1607 42.5155 18.828 41.4847 21.3167L10.6886 8.56088L-20.1075 -4.19492C-22.4269 1.40473 -23.6207 7.40633 -23.6207 13.4672H9.71267ZM10.6886 8.56088L41.4847 21.3167C40.4539 23.8053 38.9429 26.0668 37.0379 27.9718L13.4677 4.40159L-10.1026 -19.1686C-14.3885 -14.8827 -17.7882 -9.79456 -20.1075 -4.19492L10.6886 8.56088ZM13.4677 4.40159L37.0057 28.004L37.654 27.3575L14.1159 3.7551L-9.42213 -19.8473L-10.0704 -19.2008L13.4677 4.40159ZM14.1159 3.7551L37.6873 27.3241C33.8405 31.1714 28.6223 33.3333 23.1806 33.3333V0V-33.3333C10.939 -33.3333 -0.800447 -28.4699 -9.4555 -19.8139L14.1159 3.7551ZM23.1806 0V33.3333C17.7389 33.3333 12.5207 31.1714 8.67386 27.3241L32.2453 3.7551L55.8167 -19.8139C47.1617 -28.4699 35.4222 -33.3333 23.1806 -33.3333V0ZM32.2453 3.7551L8.67386 27.3241C4.82713 23.477 2.66667 18.2599 2.66667 12.8207H36H69.3333C69.3333 0.580974 64.4716 -11.1581 55.8167 -19.8139L32.2453 3.7551ZM36 12.8207H2.66667C2.66667 7.3815 4.82713 2.1644 8.67386 -1.68272L32.2453 21.8863L55.8167 45.4553C64.4716 36.7995 69.3333 25.0604 69.3333 12.8207H36ZM32.2453 21.8863L55.8167 -1.68272L55.8149 -1.68455L32.2435 21.8845L8.67203 45.4535L8.67386 45.4553L32.2453 21.8863Z" fill="#D9D9D9" mask="url(#path-1-inside-1_186_28)"/>
</svg>
