<?xml version="1.0" encoding="UTF-8" standalone="no"?>
<svg
   shape-rendering="geometricPrecision"
   text-rendering="geometricPrecision"
   image-rendering="optimizeQuality"
   fill-rule="evenodd"
   clip-rule="evenodd"
   viewBox="0 0 512 456.079"
   version="1.1"
   id="svg8"
   sodipodi:docname="heart.svg"
   xml:space="preserve"
   inkscape:export-filename="../Desktop/heart.svg"
   inkscape:export-xdpi="96"
   inkscape:export-ydpi="96"
   inkscape:version="1.2.2 (b0a8486541, 2022-12-01)"
   xmlns:inkscape="http://www.inkscape.org/namespaces/inkscape"
   xmlns:sodipodi="http://sodipodi.sourceforge.net/DTD/sodipodi-0.dtd"
   xmlns="http://www.w3.org/2000/svg"
   xmlns:svg="http://www.w3.org/2000/svg"><defs
     id="defs12" /><sodipodi:namedview
     id="namedview10"
     pagecolor="#ffffff"
     bordercolor="#000000"
     borderopacity="0.25"
     inkscape:showpageshadow="2"
     inkscape:pageopacity="0.0"
     inkscape:pagecheckerboard="0"
     inkscape:deskcolor="#d1d1d1"
     showgrid="false"
     inkscape:zoom="0.5"
     inkscape:cx="-58"
     inkscape:cy="238"
     inkscape:window-width="1440"
     inkscape:window-height="828"
     inkscape:window-x="0"
     inkscape:window-y="0"
     inkscape:window-maximized="1"
     inkscape:current-layer="svg8" /><path
     style="fill:#4da9a2;fill-opacity:0.980392;stroke:none;stroke-width:18.2602;stroke-linecap:round"
     d="M 228.03951,438.33815 C 152.10794,386.09498 98.587341,337.8463 60.145251,286.98192 31.589346,249.19836 16.223155,218.83461 6.438472,180.85677 2.2145885,164.46236 1.7497782,159.22336 2.3946461,135.27767 3.0431246,111.19793 3.7667171,106.39038 8.9734672,91.568007 31.114835,28.536817 96.156195,-9.3760085 159.4344,3.8638243 c 33.77528,7.0668727 66.10649,31.5405167 85.13892,64.4473107 7.52408,13.009043 9.7266,15.569198 11.37559,13.222724 27.46779,-39.085869 48.63652,-56.440264 83.21154,-68.217853 13.16066,-4.4830343 18.76603,-5.2848707 37.68449,-5.390698 39.60107,-0.221523 65.67874,10.466565 93.82713,38.455608 18.68158,18.575832 26.14119,30.434149 34.03922,54.111074 4.00594,12.00911 4.49862,16.99896 4.38878,44.44837 -0.11209,27.98837 -0.62626,32.57 -5.42268,48.31346 -22.44595,73.67525 -87.10101,149.67661 -187.72833,220.67271 -16.81971,11.86688 -62.21791,41.32634 -63.35094,41.10918 -0.22104,-0.0423 -11.27242,-7.55626 -24.55861,-16.69756 z"
     id="path1628" /></svg>
