<svg width="28" height="26" viewBox="0 0 28 26" fill="none" xmlns="http://www.w3.org/2000/svg">
<path fill-rule="evenodd" clip-rule="evenodd" d="M12.281 0.584724C13.292 -0.194908 14.7078 -0.194908 15.7189 0.584724L27.4561 9.63489C28.5105 10.4479 27.9286 12.1209 26.5957 12.1209H25.1999V23.2242C25.1999 24.7573 23.9462 26 22.3999 26H5.60002C4.05364 26 2.80004 24.7573 2.80004 23.2242V12.1209H1.40415C0.0698465 12.1209 -0.509524 10.4471 0.54377 9.63489L12.281 0.584724ZM5.0756 9.65713C5.39554 9.91414 5.60002 10.3068 5.60002 10.7468V23.2242H22.3999V10.7468C22.3999 10.3068 22.6043 9.91413 22.9242 9.65713L14 2.77584L5.0756 9.65713Z" fill="#4EBCC3"/>
</svg>
