<svg width="27" height="27" viewBox="0 0 27 27" fill="none" xmlns="http://www.w3.org/2000/svg">
<path fill-rule="evenodd" clip-rule="evenodd" d="M18 1.28571C18 0.57564 18.5756 0 19.2857 0H24.4286C25.8488 0 27 1.15127 27 2.57143V7.71429C27 8.42437 26.4244 9 25.7143 9C25.0042 9 24.4286 8.42436 24.4286 7.71429V4.38799L18.6006 10.216C18.5363 10.2803 18.4667 10.3364 18.3936 10.3843C19.7581 12.1297 20.5714 14.327 20.5714 16.7143C20.5714 22.395 15.9664 27 10.2857 27C4.60507 27 0 22.395 0 16.7143C0 11.0336 4.60507 6.42857 10.2857 6.42857C12.6719 6.42857 14.8683 7.2411 16.6132 8.60459C16.6612 8.53122 16.7174 8.46165 16.7818 8.39723L22.6075 2.57143H19.2857C18.5756 2.57143 18 1.99579 18 1.28571ZM10.2857 24.4238C6.02783 24.4238 2.57612 20.9722 2.57612 16.7143C2.57612 12.4564 6.02783 9.00469 10.2857 9.00469C14.5436 9.00469 17.9952 12.4564 17.9952 16.7143C17.9952 20.9722 14.5436 24.4238 10.2857 24.4238Z" fill="#4EBCC3"/>
</svg>
