<svg width="30" height="37" viewBox="0 0 30 37" fill="none" xmlns="http://www.w3.org/2000/svg">
<path d="M21.259 9.33603C21.259 9.68112 21.2352 10.0262 21.1917 10.3674C21.2115 10.2301 21.2313 10.089 21.2471 9.95171C21.1521 10.634 20.97 11.2968 20.7047 11.9321C20.7562 11.8066 20.8116 11.6811 20.8631 11.5556C20.5978 12.1752 20.2574 12.7556 19.8417 13.2889L20.0911 12.9713C19.6794 13.4967 19.2003 13.9712 18.6698 14.3791L18.9905 14.132C18.4521 14.5399 17.8662 14.881 17.2407 15.1438C17.3674 15.0928 17.4941 15.0379 17.6207 14.9869C16.9794 15.2496 16.3103 15.43 15.6215 15.5242C15.7601 15.5045 15.9026 15.4849 16.0411 15.4692C15.3483 15.5594 14.6516 15.5594 13.9588 15.4692C14.0973 15.4889 14.2398 15.5085 14.3784 15.5242C13.6896 15.43 13.0205 15.2496 12.3792 14.9869C12.5058 15.0379 12.6325 15.0928 12.7592 15.1438C12.1337 14.881 11.5478 14.5438 11.0094 14.132L11.3301 14.3791C10.7996 13.9712 10.3205 13.4967 9.90881 12.9713L10.1582 13.2889C9.7465 12.7556 9.40207 12.1752 9.13682 11.5556C9.18829 11.6811 9.24371 11.8066 9.29518 11.9321C9.02993 11.2968 8.84783 10.634 8.75281 9.95171C8.77261 10.089 8.7924 10.2301 8.80824 10.3674C8.71718 9.68112 8.71718 8.99094 8.80824 8.30468C8.78844 8.44193 8.76865 8.5831 8.75281 8.72036C8.84783 8.03802 9.02993 7.37528 9.29518 6.74C9.24371 6.86549 9.18829 6.99098 9.13682 7.11646C9.40207 6.49687 9.74254 5.91649 10.1582 5.38316L9.90881 5.7008C10.3205 5.17532 10.7996 4.70082 11.3301 4.29299L11.0094 4.54004C11.5478 4.13221 12.1337 3.79104 12.7592 3.5283C12.6325 3.57928 12.5058 3.63418 12.3792 3.68516C13.0205 3.42242 13.6896 3.24203 14.3784 3.14791C14.2398 3.16752 14.0973 3.18713 13.9588 3.20281C14.6516 3.11262 15.3483 3.11262 16.0411 3.20281C15.9026 3.1832 15.7601 3.1636 15.6215 3.14791C16.3103 3.24203 16.9794 3.42242 17.6207 3.68516C17.4941 3.63418 17.3674 3.57928 17.2407 3.5283C17.8662 3.79104 18.4521 4.12829 18.9905 4.54004L18.6698 4.29299C19.2003 4.70082 19.6794 5.17532 20.0911 5.7008L19.8417 5.38316C20.2534 5.91649 20.5978 6.49687 20.8631 7.11646C20.8116 6.99098 20.7562 6.86549 20.7047 6.74C20.97 7.37528 21.1521 8.03802 21.2471 8.72036C21.2273 8.5831 21.2075 8.44193 21.1917 8.30468C21.2352 8.64585 21.255 8.99094 21.259 9.33603C21.2629 10.1556 21.9834 10.9438 22.8425 10.9046C23.6976 10.8654 24.43 10.2144 24.4261 9.33603C24.4182 7.45763 23.8481 5.5361 22.7317 4.00672C22.4308 3.59496 22.1101 3.19105 21.7538 2.82635C21.3936 2.45773 20.9977 2.14009 20.586 1.83029C19.8377 1.26559 19.0024 0.849915 18.1156 0.528352C14.5407 -0.769663 10.2295 0.387178 7.81059 3.30477C7.47805 3.70476 7.16134 4.12044 6.89213 4.56749C6.62293 5.01062 6.4131 5.4812 6.21912 5.95962C5.8549 6.84588 5.66883 7.78704 5.59361 8.73996C5.44713 10.6066 5.93804 12.5556 6.91984 14.1555C7.86602 15.7006 9.29518 17.0261 10.9658 17.7751C11.4567 17.9947 11.9595 18.1986 12.4821 18.3437C13.0007 18.4849 13.5272 18.5633 14.0617 18.6261C15.0356 18.7398 16.0293 18.6613 16.9913 18.4692C20.6453 17.732 23.7056 14.6144 24.2717 10.9556C24.3548 10.4223 24.4182 9.88896 24.4182 9.3478C24.4221 8.5282 23.6858 7.73998 22.8346 7.7792C21.9795 7.80665 21.259 8.45762 21.259 9.33603ZM26.5124 33.8571H6.19932C5.30065 33.8571 4.40198 33.865 3.50331 33.8571C3.40434 33.8571 3.30537 33.8493 3.21036 33.8375C3.34892 33.8571 3.49144 33.8767 3.63 33.8924C3.47164 33.8689 3.3212 33.8258 3.17473 33.7669C3.30141 33.8179 3.42809 33.8728 3.55478 33.9238C3.39642 33.8571 3.24994 33.7709 3.11138 33.665L3.43205 33.912C3.31329 33.814 3.20244 33.7081 3.10742 33.5905L3.35683 33.9081C3.24994 33.7709 3.16681 33.6258 3.09555 33.4689C3.14701 33.5944 3.20244 33.7199 3.2539 33.8454C3.19452 33.7003 3.15493 33.5473 3.12722 33.3944C3.14701 33.5317 3.16681 33.6728 3.18264 33.8101C3.1193 33.3356 3.16285 32.8336 3.16285 32.3552V30.6768C3.16285 30.2572 3.1866 29.8415 3.24203 29.4259C3.22223 29.5631 3.20244 29.7043 3.1866 29.8415C3.29745 29.0376 3.51123 28.2494 3.8319 27.5004C3.78044 27.6259 3.72501 27.7514 3.67355 27.8769C3.98234 27.1631 4.37823 26.4926 4.85726 25.8769L4.60785 26.1945C5.08687 25.5867 5.63716 25.0377 6.25475 24.5632L5.93408 24.8103C6.55562 24.3358 7.23259 23.9436 7.95311 23.6377C7.82643 23.6887 7.69974 23.7436 7.57306 23.7946C8.32921 23.4809 9.12099 23.2652 9.93652 23.1554C9.79796 23.175 9.65544 23.1946 9.51688 23.2103C10.1028 23.1358 10.6848 23.1319 11.2746 23.1319H18.5194C19.1726 23.1319 19.8219 23.1279 20.4751 23.2103C20.3365 23.1907 20.194 23.1711 20.0555 23.1554C20.867 23.2652 21.6628 23.4769 22.4189 23.7946C22.2922 23.7436 22.1656 23.6887 22.0389 23.6377C22.7594 23.9436 23.4364 24.3358 24.0579 24.8103L23.7372 24.5632C24.3509 25.0377 24.9051 25.5828 25.3841 26.1945L25.1347 25.8769C25.6138 26.4926 26.0096 27.1631 26.3184 27.8769C26.267 27.7514 26.2115 27.6259 26.1601 27.5004C26.4768 28.2494 26.6945 29.0337 26.8054 29.8415C26.7856 29.7043 26.7658 29.5631 26.75 29.4259C26.8252 30.018 26.8291 30.6062 26.8291 31.2023V33.1434C26.8291 33.367 26.8371 33.5905 26.8093 33.8101C26.8291 33.6728 26.8489 33.5317 26.8648 33.3944C26.841 33.5513 26.7975 33.7003 26.7381 33.8454C26.7895 33.7199 26.845 33.5944 26.8964 33.4689C26.8291 33.6258 26.742 33.7709 26.6351 33.9081L26.8846 33.5905C26.7856 33.7081 26.6787 33.8179 26.5599 33.912L26.8806 33.665C26.742 33.7709 26.5956 33.8532 26.4372 33.9238C26.5639 33.8728 26.6906 33.8179 26.8173 33.7669C26.6708 33.8258 26.5164 33.865 26.362 33.8924C26.5005 33.8728 26.6431 33.8532 26.7816 33.8375C26.6945 33.8493 26.6035 33.8532 26.5124 33.8571C26.1047 33.8611 25.685 34.0297 25.3921 34.316C25.1189 34.5865 24.9091 35.0336 24.9289 35.4257C24.9685 36.2649 25.6256 37.0061 26.5124 36.9943C28.0524 36.9708 29.4064 35.9748 29.8577 34.512C30.0358 33.9317 29.9963 33.3081 29.9963 32.7121C29.9963 31.3474 30.0398 29.9945 29.8023 28.6416C29.4539 26.6612 28.4483 24.7985 27.0706 23.3358C25.6929 21.8731 23.8402 20.7986 21.8805 20.3201C20.7562 20.0456 19.6239 20.0025 18.4759 20.0025H11.4528C10.277 20.0025 9.10911 20.0574 7.96499 20.3594C6.02117 20.8691 4.19216 21.9554 2.84218 23.4299C1.48032 24.9161 0.494552 26.7828 0.173882 28.7749C-0.0398987 30.1121 0.00364907 31.4533 0.00364907 32.8023C0.00364907 33.4219 -0.0319809 34.0689 0.193676 34.661C0.486635 35.4218 0.953785 36.0218 1.63867 36.4728C2.17312 36.8218 2.8501 36.9904 3.48352 36.9983C3.79231 37.0022 4.10111 36.9983 4.4099 36.9983H26.5164C27.3438 36.9983 28.1395 36.2767 28.0999 35.4297C28.0604 34.5748 27.4032 33.8571 26.5124 33.8571Z" fill="#D9D9D9"/>
</svg>
