<svg width="18" height="18" viewBox="0 0 18 18" fill="none" xmlns="http://www.w3.org/2000/svg">
<path d="M17.0567 0.444891L17.5503 0.933236C18.2306 1.60699 18.1277 2.80136 17.3186 3.60093L7.13811 13.6716L3.83974 14.8651C3.42556 15.0158 3.02226 14.8204 2.94026 14.4306C2.91254 14.2892 2.92559 14.1429 2.97791 14.0085L4.2079 10.7175L14.3599 0.674165C15.169 -0.125397 16.3764 -0.22886 17.0567 0.444891ZM6.69381 1.44641C6.80369 1.44641 6.9125 1.46782 7.01401 1.50942C7.11553 1.55101 7.20777 1.61198 7.28547 1.68884C7.36316 1.7657 7.4248 1.85695 7.46685 1.95737C7.50889 2.05779 7.53054 2.16542 7.53054 2.27412C7.53054 2.38281 7.50889 2.49044 7.46685 2.59086C7.4248 2.69129 7.36316 2.78253 7.28547 2.85939C7.20777 2.93625 7.11553 2.99722 7.01401 3.03881C6.9125 3.08041 6.80369 3.10182 6.69381 3.10182H3.3469C2.90308 3.10182 2.47743 3.27623 2.1636 3.58668C1.84976 3.89713 1.67345 4.31819 1.67345 4.75723V14.6897C1.67345 15.1287 1.84976 15.5498 2.1636 15.8602C2.47743 16.1707 2.90308 16.3451 3.3469 16.3451H13.3876C13.8314 16.3451 14.2571 16.1707 14.5709 15.8602C14.8848 15.5498 15.0611 15.1287 15.0611 14.6897V11.3789C15.0611 11.1593 15.1492 10.9488 15.3061 10.7936C15.4631 10.6384 15.6759 10.5512 15.8978 10.5512C16.1197 10.5512 16.3325 10.6384 16.4895 10.7936C16.6464 10.9488 16.7345 11.1593 16.7345 11.3789V14.6897C16.7345 15.5678 16.3819 16.4099 15.7542 17.0308C15.1266 17.6517 14.2753 18.0005 13.3876 18.0005H3.3469C2.45925 18.0005 1.60795 17.6517 0.980286 17.0308C0.352619 16.4099 0 15.5678 0 14.6897V4.75723C0 3.87914 0.352619 3.03703 0.980286 2.41613C1.60795 1.79523 2.45925 1.44641 3.3469 1.44641H6.69381Z" fill="#499A95"/>
</svg>
