<svg width="35" height="35" viewBox="0 0 35 35" fill="none" xmlns="http://www.w3.org/2000/svg">
<path d="M28.9509 4.20615C28.6077 3.8623 28.2044 3.69277 27.7375 3.69277C27.2713 3.69277 26.8625 3.8623 26.5241 4.20615L24.675 6.0498C24.1794 5.72852 23.6544 5.44824 23.1062 5.19736C22.5579 4.94648 21.9974 4.73115 21.4313 4.54453V1.70898C21.4313 1.23047 21.2687 0.827832 20.9357 0.495605C20.6035 0.163379 20.2009 0 19.7224 0H16.1643C15.709 0 15.3132 0.163379 14.9687 0.495605C14.6303 0.827832 14.4607 1.23047 14.4607 1.70898V4.30527C13.866 4.44473 13.2884 4.61973 12.734 4.83574C12.1741 5.05176 11.6437 5.29648 11.1419 5.57061L9.09385 3.55195C8.77324 3.21426 8.38291 3.03926 7.90986 3.03926C7.44297 3.03926 7.04102 3.21426 6.69648 3.55195L4.20615 6.0498C3.8623 6.39365 3.69277 6.79629 3.69277 7.26182C3.69277 7.72871 3.8623 8.1375 4.20615 8.4752L6.0498 10.325C5.72852 10.8213 5.44893 11.3456 5.19805 11.8938C4.94648 12.4421 4.73115 13.0026 4.54453 13.568H1.70967C1.23047 13.568 0.827832 13.7313 0.495605 14.0643C0.163379 14.3965 0 14.7991 0 15.2776V18.8357C0 19.2903 0.163379 19.6875 0.495605 20.032C0.827832 20.3697 1.23047 20.5393 1.70967 20.5393H4.30527C4.44473 21.134 4.61973 21.7116 4.83574 22.2653C5.05244 22.8259 5.29717 23.368 5.57061 23.893L3.55264 25.9055C3.21426 26.2268 3.03926 26.6171 3.03926 27.0901C3.03926 27.5563 3.21426 27.959 3.55264 28.3035L6.0498 30.8294C6.39365 31.15 6.79629 31.3079 7.26318 31.3079C7.72939 31.3079 8.1375 31.15 8.47656 30.8294L10.325 28.9509C10.8213 29.2715 11.3463 29.5511 11.8945 29.8026C12.4428 30.0528 13.0026 30.2695 13.5687 30.4555V33.291C13.5687 33.7695 13.732 34.1715 14.0643 34.5037C14.3965 34.8366 14.7998 35 15.2776 35H18.8357C19.291 35 19.6875 34.8366 20.032 34.5037C20.3697 34.1715 20.5393 33.7695 20.5393 33.291V30.6947C21.134 30.5553 21.7116 30.3803 22.2653 30.1643C22.8259 29.9482 23.3687 29.7035 23.893 29.4294L25.9055 31.448C26.2268 31.7864 26.6226 31.9607 27.1024 31.9607C27.5857 31.9607 27.9822 31.7864 28.3035 31.448L30.8294 28.9509C31.15 28.6063 31.3079 28.2044 31.3079 27.7375C31.3079 27.2713 31.15 26.8625 30.8294 26.5241L28.9509 24.675C29.2722 24.1787 29.5518 23.6544 29.8026 23.1055C30.0528 22.5579 30.2695 21.9974 30.4562 21.4313H33.291C33.7695 21.4313 34.1715 21.2673 34.5037 20.9357C34.8366 20.6028 35 20.2009 35 19.7224V16.1643C35 15.709 34.8366 15.3132 34.5037 14.968C34.1715 14.6296 33.7695 14.4607 33.291 14.4607H30.6947C30.5553 13.8893 30.3803 13.3171 30.1643 12.7518C29.9482 12.1796 29.7035 11.6437 29.4294 11.1412L31.448 9.09385C31.7864 8.77324 31.9607 8.38223 31.9607 7.90986C31.9607 7.44297 31.7864 7.04102 31.448 6.69648L28.9509 4.20615ZM25.6416 21.8415C24.0885 24.7481 21.0246 26.7251 17.5 26.7251C13.974 26.7251 10.9122 24.7481 9.35908 21.8429C9.54092 21.0492 9.84102 20.3567 10.7194 19.8714C11.9335 19.1953 14.0239 19.2459 15.0186 18.3511L16.3926 21.9591L17.083 19.9924L16.7446 19.6219C16.4903 19.25 16.5778 18.8275 17.0495 18.751C17.2088 18.7257 17.3879 18.7414 17.5602 18.7414C17.744 18.7414 17.9484 18.7243 18.1221 18.7633C18.5603 18.8597 18.6054 19.2842 18.3873 19.6219L18.0489 19.9924L18.74 21.9591L19.9828 18.3511C20.8797 19.1577 23.2935 19.3204 24.2812 19.8714C25.1624 20.3649 25.4611 21.0499 25.6416 21.8415ZM14.7649 15.9318C14.6405 15.9339 14.5387 15.9182 14.4279 15.8566C14.281 15.7753 14.1771 15.6352 14.1066 15.4772C13.9583 15.145 13.8407 14.2721 14.214 14.0219L14.1442 13.9768L14.1367 13.8804C14.1224 13.7047 14.1189 13.4921 14.1148 13.2686C14.1012 12.4482 14.0841 11.4529 13.406 11.254L13.1154 11.1679L13.3075 10.9368C13.8551 10.2778 14.4272 9.70156 15.0042 9.25928C15.657 8.7582 16.3208 8.42529 16.9695 8.32891C17.6374 8.23047 18.2841 8.38018 18.8815 8.8498C19.0572 8.98857 19.2288 9.15605 19.3942 9.35088C20.0307 9.41103 20.5522 9.74531 20.9241 10.2225C21.1456 10.5068 21.3145 10.8438 21.4225 11.2021C21.5291 11.5589 21.5756 11.9383 21.5558 12.3115C21.5195 12.9814 21.2687 13.6343 20.7621 14.1114C20.851 14.1142 20.9351 14.134 21.0089 14.1736C21.2919 14.3206 21.3008 14.6398 21.227 14.9085C21.1531 15.1327 21.0602 15.3925 20.972 15.6112C20.8653 15.9059 20.7088 15.9612 20.4066 15.9291C19.7278 18.8993 15.6229 19.0005 14.7649 15.9318ZM17.5 6.65615C23.491 6.65615 28.3438 11.5124 28.3438 17.5C28.3438 23.491 23.4876 28.3438 17.5 28.3438C11.5097 28.3438 6.65615 23.4876 6.65615 17.5C6.65615 11.509 11.5124 6.65615 17.5 6.65615Z" fill="#499A95"/>
</svg>
