<svg width="20" height="20" viewBox="0 0 20 20" fill="none" xmlns="http://www.w3.org/2000/svg">
<path d="M19.3448 6.29318C19.0933 5.62363 18.7726 4.98141 18.3965 4.37372C18.2763 4.17939 17.9556 4.09823 17.8291 4.33012C17.6959 4.57441 17.5478 4.77705 17.4843 4.86358C17.4838 4.86439 17.4832 4.8652 17.4826 4.86601C17.3786 5.00878 17.3675 5.19919 17.4542 5.35309C18.1958 6.66893 18.6443 8.15102 18.6582 9.65792C18.6606 9.85371 18.6568 10.0959 18.6422 10.2905C18.6303 10.4918 18.6068 10.7204 18.5733 10.9193C18.4881 11.4713 18.3223 12.018 18.1426 12.5461C18.1001 12.6572 18.0401 12.8297 17.9925 12.9377L17.9119 13.1314C17.8816 13.1942 17.8093 13.3569 17.7793 13.4176C17.7484 13.4773 17.6682 13.6372 17.6361 13.6988C17.5379 13.8768 17.4268 14.0752 17.3183 14.2455C16.8084 15.0497 16.1666 15.7743 15.4355 16.3838C14.7022 16.9924 13.8722 17.4915 12.9886 17.8494C12.8001 17.9241 12.5829 18.0019 12.3919 18.0647C12.3291 18.0847 12.1461 18.1375 12.0886 18.1556C12.0184 18.1753 11.8561 18.2141 11.7821 18.235C8.61627 19.0001 5.06549 17.7523 3.0611 15.1872C1.6641 13.41 0.995577 11.0478 1.3227 8.8062C1.66196 6.54892 3.01946 4.50671 4.80782 3.1109C7.47679 1.01613 11.4283 0.67898 14.4399 2.23792C14.6436 2.34338 14.9553 2.3091 15.1322 2.16301C15.2811 2.04003 15.3087 1.96213 15.4441 1.81829C15.6262 1.62477 15.5572 1.38843 15.3637 1.27338C15.2596 1.21148 15.1528 1.1503 15.0717 1.10916C11.4529 -0.7463 6.74036 -0.253587 3.66348 2.43527C1.83135 4.01451 0.476699 6.20636 0.107937 8.62232C-0.503013 12.5228 1.52706 16.6263 4.99554 18.5091C6.77367 19.5021 8.85037 19.9696 10.8831 19.7676C11.1055 19.7486 11.3943 19.7058 11.6137 19.6668C11.9303 19.6113 12.2617 19.5357 12.5706 19.4462C13.8246 19.0917 15.0075 18.4822 16.0414 17.6907C16.9438 16.9955 17.7432 16.1559 18.3784 15.21C18.6284 14.8417 18.8578 14.4404 19.0567 14.0426C19.1345 13.8806 19.242 13.6489 19.3098 13.4811C19.3657 13.3543 19.4387 13.1519 19.4887 13.021C19.5132 12.9446 19.581 12.7446 19.6036 12.6706C19.6336 12.5554 19.6743 12.4298 19.7016 12.3149C19.7973 11.9231 19.872 11.5055 19.9179 11.1051C20.1303 9.48115 19.9274 7.82245 19.3448 6.29318Z" fill="#499A95"/>
<path d="M18.3782 1.33101C18.2036 1.04067 17.8268 0.94677 17.5365 1.1213C17.4615 1.16634 17.3926 1.21664 17.3252 1.26832C17.0164 1.49867 16.6935 1.86951 16.433 2.14888C14.1446 4.61683 12.0708 7.30333 10.3598 10.2098C10.1896 10.4928 10.0131 10.8034 9.87024 11.1015C9.73276 11.3824 9.58628 11.6919 9.45549 11.9776C8.55552 10.33 7.13957 8.52197 5.45881 7.7821C4.78681 7.50406 4.12188 8.21166 4.45464 8.86836C4.55327 9.06199 4.66842 9.24263 4.78366 9.42461C5.34548 10.3097 6.00572 11.1182 6.58919 11.9848C7.33102 13.0705 7.95583 14.2201 8.56012 15.3851C8.9764 16.1706 10.1555 16.0528 10.4037 15.1912C10.8205 14.3144 11.2488 13.4483 11.7069 12.5943C11.8532 12.3173 12.0222 12.0223 12.1628 11.7434C12.2995 11.4693 12.4532 11.1523 12.5953 10.8801C13.7737 8.5733 15.1875 6.39798 16.7163 4.30166C16.9754 3.94829 17.3292 3.46991 17.5943 3.12043C17.7629 2.89459 18.0331 2.56154 18.1779 2.32682C18.2681 2.18523 18.3527 2.04076 18.4182 1.88405C18.4911 1.70975 18.4827 1.50509 18.3782 1.33101Z" fill="#499A95"/>
</svg>
