<svg width="20" height="23" viewBox="0 0 20 23" fill="none" xmlns="http://www.w3.org/2000/svg">
<path fill-rule="evenodd" clip-rule="evenodd" d="M0 2.55556C0 1.87778 0.263392 1.22776 0.732233 0.748505C1.20107 0.269245 1.83696 0 2.5 0H11.9825C12.6455 0.00014474 13.2813 0.269485 13.75 0.748778L19.2675 6.38889C19.7364 6.86804 19.9999 7.51795 20 8.19567V20.4444C20 21.1222 19.7366 21.7722 19.2678 22.2515C18.7989 22.7308 18.163 23 17.5 23H2.5C1.83696 23 1.20107 22.7308 0.732233 22.2515C0.263392 21.7722 0 21.1222 0 20.4444V2.55556ZM11.9825 2.55556H2.5V12.282L5.45 9.31117L6.2875 8.47039L7.1625 9.27028L9.91375 11.7875L12.33 9.31883L13.17 8.46017L14.0525 9.27411L17.5 12.4571V8.19567L11.9825 2.55556ZM17.5 15.9007L13.2588 11.9843L11.78 13.4959L17.5 18.7297V15.9007ZM2.5 20.4444V15.8687L6.36875 11.9741L15.6263 20.4444H2.5Z" fill="#499A95"/>
</svg>
