<svg width="20" height="22" viewBox="0 0 20 22" fill="none" xmlns="http://www.w3.org/2000/svg">
<path fill-rule="evenodd" clip-rule="evenodd" d="M2.5 0C1.83696 0 1.20107 0.257539 0.732233 0.715961C0.263392 1.17438 0 1.79614 0 2.44444V19.5556C0 20.2039 0.263392 20.8256 0.732233 21.284C1.20107 21.7425 1.83696 22 2.5 22H17.5C18.163 22 18.7989 21.7425 19.2678 21.284C19.7366 20.8256 20 20.2039 20 19.5556V7.83933C19.9999 7.19108 19.7364 6.56943 19.2675 6.11111L13.75 0.716222C13.2813 0.257768 12.6455 0.000138447 11.9825 0H2.5ZM2.5 2.44444H11.9825L17.5 7.83933V19.5556H2.5V2.44444ZM5 4.88889C4.66848 4.88889 4.35054 5.01766 4.11612 5.24687C3.8817 5.47608 3.75 5.78696 3.75 6.11111C3.75 6.43526 3.8817 6.74614 4.11612 6.97535C4.35054 7.20456 4.66848 7.33333 5 7.33333H11.25C11.5815 7.33333 11.8995 7.20456 12.1339 6.97535C12.3683 6.74614 12.5 6.43526 12.5 6.11111C12.5 5.78696 12.3683 5.47608 12.1339 5.24687C11.8995 5.01766 11.5815 4.88889 11.25 4.88889H5ZM3.75 11C3.75 10.6758 3.8817 10.365 4.11612 10.1358C4.35054 9.90655 4.66848 9.77778 5 9.77778H15C15.3315 9.77778 15.6495 9.90655 15.8839 10.1358C16.1183 10.365 16.25 10.6758 16.25 11C16.25 11.3242 16.1183 11.635 15.8839 11.8642C15.6495 12.0935 15.3315 12.2222 15 12.2222H5C4.66848 12.2222 4.35054 12.0935 4.11612 11.8642C3.8817 11.635 3.75 11.3242 3.75 11ZM5 14.6667C4.66848 14.6667 4.35054 14.7954 4.11612 15.0246C3.8817 15.2539 3.75 15.5647 3.75 15.8889C3.75 16.213 3.8817 16.5239 4.11612 16.7531C4.35054 16.9823 4.66848 17.1111 5 17.1111H15C15.3315 17.1111 15.6495 16.9823 15.8839 16.7531C16.1183 16.5239 16.25 16.213 16.25 15.8889C16.25 15.5647 16.1183 15.2539 15.8839 15.0246C15.6495 14.7954 15.3315 14.6667 15 14.6667H5Z" fill="#499A95"/>
</svg>
