<svg width="42" height="36" viewBox="0 0 42 36" fill="none" xmlns="http://www.w3.org/2000/svg">
<mask id="path-1-inside-1_186_19" fill="white">
<path fill-rule="evenodd" clip-rule="evenodd" d="M9.15075 17.2345L11.4914 14.9272C12.2045 14.2242 13.3607 14.2242 14.0738 14.9272C14.787 15.6301 14.787 16.7699 14.0738 17.4728L8.59559 22.8728C8.25312 23.2103 7.78866 23.4 7.30434 23.4C6.82003 23.4 6.35557 23.2103 6.0131 22.8728L0.534849 17.4728C-0.178283 16.7699 -0.178283 15.6301 0.534849 14.9272C1.24798 14.2242 2.40419 14.2242 3.11733 14.9272L5.49307 17.269C5.88215 7.66679 13.9023 0 23.7391 0C33.8244 0 42 8.05887 42 18C42 27.941 33.8244 36 23.7391 36C18.0019 36 12.8818 33.3898 9.53699 29.3155C8.90259 28.5428 9.02386 27.4093 9.80785 26.784C10.5918 26.1587 11.7417 26.2782 12.3761 27.0509C15.0572 30.3169 19.1507 32.4 23.7391 32.4C31.8073 32.4 38.3478 25.9529 38.3478 18C38.3478 10.0471 31.8073 3.6 23.7391 3.6C15.9315 3.6 9.55448 9.63742 9.15075 17.2345ZM23.7391 5.4C24.7477 5.4 25.5652 6.2059 25.5652 7.2V17.2544L30.5086 22.1272C31.2217 22.8301 31.2217 23.9699 30.5086 24.6728C29.7955 25.3757 28.6393 25.3757 27.9262 24.6728L22.4479 19.2728C22.1055 18.9353 21.9131 18.4774 21.9131 18V7.2C21.9131 6.2059 22.7306 5.4 23.7391 5.4Z"/>
</mask>
<path fill-rule="evenodd" clip-rule="evenodd" d="M9.15075 17.2345L11.4914 14.9272C12.2045 14.2242 13.3607 14.2242 14.0738 14.9272C14.787 15.6301 14.787 16.7699 14.0738 17.4728L8.59559 22.8728C8.25312 23.2103 7.78866 23.4 7.30434 23.4C6.82003 23.4 6.35557 23.2103 6.0131 22.8728L0.534849 17.4728C-0.178283 16.7699 -0.178283 15.6301 0.534849 14.9272C1.24798 14.2242 2.40419 14.2242 3.11733 14.9272L5.49307 17.269C5.88215 7.66679 13.9023 0 23.7391 0C33.8244 0 42 8.05887 42 18C42 27.941 33.8244 36 23.7391 36C18.0019 36 12.8818 33.3898 9.53699 29.3155C8.90259 28.5428 9.02386 27.4093 9.80785 26.784C10.5918 26.1587 11.7417 26.2782 12.3761 27.0509C15.0572 30.3169 19.1507 32.4 23.7391 32.4C31.8073 32.4 38.3478 25.9529 38.3478 18C38.3478 10.0471 31.8073 3.6 23.7391 3.6C15.9315 3.6 9.55448 9.63742 9.15075 17.2345ZM23.7391 5.4C24.7477 5.4 25.5652 6.2059 25.5652 7.2V17.2544L30.5086 22.1272C31.2217 22.8301 31.2217 23.9699 30.5086 24.6728C29.7955 25.3757 28.6393 25.3757 27.9262 24.6728L22.4479 19.2728C22.1055 18.9353 21.9131 18.4774 21.9131 18V7.2C21.9131 6.2059 22.7306 5.4 23.7391 5.4Z" fill="#D9D9D9"/>
<path d="M9.15075 17.2345L-24.1356 15.4655L-28.6998 101.351L32.5512 40.9733L9.15075 17.2345ZM11.4914 14.9272L-11.909 -8.81166L-11.9091 -8.81159L11.4914 14.9272ZM14.0738 14.9272L-9.32651 38.6661L-9.3256 38.667L14.0738 14.9272ZM14.0738 17.4728L-9.3256 -6.267L-9.32621 -6.2664L14.0738 17.4728ZM8.59559 22.8728L31.9931 46.6145L31.9956 46.612L8.59559 22.8728ZM6.0131 22.8728L-17.387 46.6119L-17.3844 46.6145L6.0131 22.8728ZM0.534849 17.4728L23.9349 -6.26638L23.9342 -6.26713L0.534849 17.4728ZM0.534849 14.9272L23.9342 38.6671L23.9354 38.6659L0.534849 14.9272ZM3.11733 14.9272L-20.283 38.6661L-20.2827 38.6664L3.11733 14.9272ZM5.49307 17.269L-17.907 41.0082L35.7488 93.8974L38.7991 18.6186L5.49307 17.269ZM9.53699 29.3155L35.3007 8.16501L35.3003 8.16451L9.53699 29.3155ZM9.80785 26.784L30.593 52.8433L30.5933 52.8431L9.80785 26.784ZM12.3761 27.0509L38.1397 5.90035L38.1393 5.89993L12.3761 27.0509ZM25.5652 17.2544H-7.76811V31.2022L2.16517 40.9936L25.5652 17.2544ZM30.5086 22.1272L7.10856 45.8664L7.10857 45.8664L30.5086 22.1272ZM27.9262 24.6728L4.52612 48.412H4.52612L27.9262 24.6728ZM22.4479 19.2728L45.848 -4.4664V-4.4664L22.4479 19.2728ZM9.15075 17.2345L32.5512 40.9733L34.8918 38.666L11.4914 14.9272L-11.9091 -8.81159L-14.2497 -6.50435L9.15075 17.2345ZM11.4914 14.9272L34.8917 38.6661C22.6272 50.7557 2.93802 50.7557 -9.32651 38.6661L14.0738 14.9272L37.4742 -8.81166C23.7834 -22.3072 1.78181 -22.3072 -11.909 -8.81166L11.4914 14.9272ZM14.0738 14.9272L-9.3256 38.667C-21.8577 26.3146 -21.8577 6.0854 -9.3256 -6.267L14.0738 17.4728L37.4733 41.2126C51.4316 27.4544 51.4316 4.94565 37.4733 -8.81255L14.0738 14.9272ZM14.0738 17.4728L-9.32621 -6.2664L-14.8045 -0.866395L8.59559 22.8728L31.9956 46.612L37.4739 41.212L14.0738 17.4728ZM8.59559 22.8728L-14.8019 -0.86889C-8.86105 -6.72365 -0.901805 -9.93333 7.30434 -9.93333V23.4V56.7333C16.4791 56.7333 25.3673 53.1442 31.9931 46.6145L8.59559 22.8728ZM7.30434 23.4V-9.93333C15.5105 -9.93333 23.4697 -6.72366 29.4106 -0.86889L6.0131 22.8728L-17.3844 46.6145C-10.7586 53.1442 -1.87043 56.7333 7.30434 56.7333V23.4ZM6.0131 22.8728L29.4132 -0.86638L23.9349 -6.26638L0.534849 17.4728L-22.8652 41.2119L-17.387 46.6119L6.0131 22.8728ZM0.534849 17.4728L23.9342 -6.26713C36.4664 6.0853 36.4664 26.3147 23.9342 38.6671L0.534849 14.9272L-22.8645 -8.81269C-36.823 4.94554 -36.823 27.4545 -22.8645 41.2127L0.534849 17.4728ZM0.534849 14.9272L23.9354 38.6659C11.6707 50.7559 -8.0186 50.7556 -20.283 38.6661L3.11733 14.9272L26.5177 -8.81166C12.827 -22.3071 -9.17475 -22.3074 -22.8657 -8.81148L0.534849 14.9272ZM3.11733 14.9272L-20.2827 38.6664L-17.907 41.0082L5.49307 17.269L28.8931 -6.47017L26.5174 -8.81197L3.11733 14.9272ZM5.49307 17.269L38.7991 18.6186C38.4498 27.2379 31.4327 33.3333 23.7391 33.3333V0V-33.3333C-3.6281 -33.3333 -26.6855 -11.9043 -27.8129 15.9195L5.49307 17.269ZM23.7391 0V33.3333C15.8686 33.3333 8.66667 26.9188 8.66667 18H42H75.3333C75.3333 -10.801 51.7802 -33.3333 23.7391 -33.3333V0ZM42 18H8.66667C8.66667 9.08123 15.8685 2.66667 23.7391 2.66667V36V69.3333C51.7804 69.3333 75.3333 46.8008 75.3333 18H42ZM23.7391 36V2.66667C28.3051 2.66667 32.5229 4.78137 35.3007 8.16501L9.53699 29.3155L-16.2267 50.466C-6.75937 61.9983 7.69867 69.3333 23.7391 69.3333V36ZM9.53699 29.3155L35.3003 8.16451C46.5255 21.8376 44.2692 41.9351 30.593 52.8433L9.80785 26.784L-10.9773 0.724667C-26.2215 12.8836 -28.7203 35.248 -16.2263 50.4665L9.53699 29.3155ZM9.80785 26.784L30.5933 52.8431C17.201 63.5252 -2.39791 61.5876 -13.3872 48.2019L12.3761 27.0509L38.1393 5.89993C25.8813 -9.03119 3.98268 -11.2078 -10.9776 0.724902L9.80785 26.784ZM12.3761 27.0509L-13.3875 48.2015C-4.57903 58.9312 8.85491 65.7333 23.7391 65.7333V32.4V-0.933332C29.4466 -0.933332 34.6935 1.70253 38.1397 5.90035L12.3761 27.0509ZM23.7391 32.4V65.7333C49.763 65.7333 71.6812 44.813 71.6812 18H38.3478H5.0145C5.0145 7.09292 13.8516 -0.933332 23.7391 -0.933332V32.4ZM38.3478 18H71.6812C71.6812 -8.81288 49.7631 -29.7333 23.7391 -29.7333V3.6V36.9333C13.8516 36.9333 5.0145 28.9071 5.0145 18H38.3478ZM23.7391 3.6V-29.7333C-1.46658 -29.7333 -22.7743 -10.1504 -24.1356 15.4655L9.15075 17.2345L42.4371 19.0034C41.8833 29.4252 33.3297 36.9333 23.7391 36.9333V3.6ZM23.7391 5.4V38.7333C6.79155 38.7333 -7.76811 25.0655 -7.76811 7.2H25.5652H58.8986C58.8986 -12.6537 42.7038 -27.9333 23.7391 -27.9333V5.4ZM25.5652 7.2H-7.76811V17.2544H25.5652H58.8986V7.2H25.5652ZM25.5652 17.2544L2.16517 40.9936L7.10856 45.8664L30.5086 22.1272L53.9087 -1.61195L48.9653 -6.48473L25.5652 17.2544ZM30.5086 22.1272L7.10857 45.8664C-5.42271 33.5141 -5.42271 13.2859 7.10857 0.933604L30.5086 24.6728L53.9087 48.412C67.8661 34.6539 67.8661 12.1461 53.9087 -1.61195L30.5086 22.1272ZM30.5086 24.6728L7.10857 0.933604C19.3731 -11.1557 39.0617 -11.1557 51.3262 0.933604L27.9262 24.6728L4.52612 48.412C18.2168 61.9071 40.218 61.9071 53.9087 48.412L30.5086 24.6728ZM27.9262 24.6728L51.3262 0.933605L45.848 -4.4664L22.4479 19.2728L-0.95214 43.012L4.52612 48.412L27.9262 24.6728ZM22.4479 19.2728L45.848 -4.4664C51.8076 1.40813 55.2464 9.47931 55.2464 18H21.9131H-11.4203C-11.4203 27.4754 -7.59658 36.4624 -0.952139 43.012L22.4479 19.2728ZM21.9131 18H55.2464V7.2H21.9131H-11.4203V18H21.9131ZM21.9131 7.2H55.2464C55.2464 25.0655 40.6867 38.7333 23.7391 38.7333V5.4V-27.9333C4.77446 -27.9333 -11.4203 -12.6537 -11.4203 7.2H21.9131Z" fill="#D9D9D9" mask="url(#path-1-inside-1_186_19)"/>
</svg>
